<?xml version="1.0" encoding="UTF-8" standalone="no"?>
<!DOCTYPE svg PUBLIC "-//W3C//DTD SVG 1.1//EN" "http://www.w3.org/Graphics/SVG/1.1/DTD/svg11.dtd">
<svg xmlns="http://www.w3.org/2000/svg" xmlns:xlink="http://www.w3.org/1999/xlink" version="1.1" width="283.465pt" height="283.465pt" viewBox="0 0 283.465 283.465">
<g enable-background="new">
<g id="Layer-1" data-name="Layer">
<clipPath id="cp0">
<path transform="matrix(1,0,0,-1,0,283.465)" d="M 0 283.465 L 283.465 283.465 L 283.465 0 L 0 0 Z "/>
</clipPath>
<g clip-path="url(#cp0)">
<path transform="matrix(1,0,0,-1,100.9067,85.6357)" d="M 0 0 C .105 .107 .201 .22 .307 .326 C 2.755 2.776 5.401 4.907 8.193 6.719 C 26.725 18.744 51.706 16.712 68.066 .636 C 86.548 -18.206 86.414 -48.431 67.719 -67.141 C 67.613 -67.248 67.59 -67.262 67.483 -67.367 C 67.483 -67.367 90.607 -90.355 90.732 -90.414 C 86.161 -81.059 79.218 -68.579 74.779 -59.343 C 85.139 -59.685 99.695 -59.853 110.106 -60.055 C 101.48 -53.653 90.139 -45.447 81.875 -39.027 C 91.307 -34.72 105.055 -28.543 114.553 -24.272 C 104.311 -22.116 89.834 -19.621 79.493 -17.625 C 86.126 -10.012 96.023 1.912 102.626 9.894 C 92.551 7.299 78.203 3.409 68.081 .65 C 70.939 10.781 74.614 25.553 77.153 35.568 C 69.229 28.807 57.681 18.661 49.822 12.073 C 48.031 22.067 45.177 37.32 43.088 47.429 C 38.72 37.922 32.64 23.948 28.438 14.458 C 22.278 22.728 13.505 34.793 7.171 43.318 C 7.474 32.906 7.802 17.796 8.14 7.354 C -1.087 12.103 -14.293 19.169 -23.558 23.775 C -23.499 23.65 0 0 0 0 " fill="#ffffff"/>
<path transform="matrix(1,0,0,-1,107.9644,195.3227)" d="M 0 0 L -15.751 15.751 L -15.754 77.163 C -15.453 100.597 3.853 119.653 27.281 119.653 C 51.014 119.653 70.323 100.344 70.323 76.61 C 70.323 53.03 51.14 33.722 27.562 33.569 L 27.213 33.567 L 27.213 33.58 L 19.371 33.563 L 19.423 83.439 L 35.126 67.735 L 35.129 50.479 C 46.578 53.915 54.565 64.646 54.565 76.61 C 54.565 91.655 42.326 103.895 27.281 103.895 C 12.59 103.895 .357 91.946 .011 77.258 L 0 76.919 Z " fill="#ffffff"/>
</g>
</g>
</g>
</svg>
